<?xml version="1.0" standalone="no"?>
<!DOCTYPE svg PUBLIC "-//W3C//DTD SVG 20010904//EN"
 "http://www.w3.org/TR/2001/REC-SVG-20010904/DTD/svg10.dtd">
<svg version="1.0" xmlns="http://www.w3.org/2000/svg"
 width="300.000000pt" height="129.000000pt" viewBox="0 0 300.000000 129.000000"
 preserveAspectRatio="xMidYMid meet">
<metadata>
Created by potrace 1.10, written by Peter Selinger 2001-2011
</metadata>
<g transform="translate(0.000000,129.000000) scale(0.100000,-0.100000)"
fill="#000000" stroke="none">
<path d="M1795 1068 c-82 -43 -153 -132 -296 -374 -75 -126 -143 -243 -152
-260 -27 -53 -159 -154 -200 -154 -38 0 -21 71 46 195 25 48 38 61 62 66 23 5
25 7 8 8 -26 1 -29 11 -11 29 20 20 -7 14 -35 -8 -14 -11 -36 -20 -49 -20 -59
0 -182 -113 -214 -196 -15 -40 -15 -47 -2 -60 20 -21 56 -6 114 48 29 27 43
35 36 21 -7 -12 -12 -36 -12 -53 0 -70 91 -56 184 30 l46 43 -6 -32 c-9 -44 9
-61 65 -61 48 0 114 33 168 82 l22 21 -12 -32 c-35 -95 84 -95 187 0 63 57 71
57 25 -1 -20 -24 -29 -45 -25 -55 8 -23 20 -12 56 50 30 53 155 174 166 162 4
-3 -15 -43 -41 -87 -56 -99 -67 -144 -36 -153 31 -8 83 9 129 43 l41 30 -5
-30 c-5 -22 -2 -31 10 -36 21 -8 98 38 130 78 l26 33 -16 -39 c-44 -109 42
-124 162 -28 60 49 60 49 56 20 -6 -40 13 -58 62 -58 49 0 107 28 159 78 l38
37 -15 -37 c-19 -46 -19 -43 0 -62 37 -38 120 -7 212 79 34 31 62 62 62 68 0
5 -28 -17 -63 -50 -86 -83 -159 -117 -173 -80 -7 19 20 88 61 158 20 34 34 63
32 65 -12 12 -41 -15 -77 -72 -76 -121 -230 -211 -254 -149 -8 22 20 104 64
182 32 58 52 81 99 112 127 86 245 219 315 354 57 109 44 139 -42 92 -103 -56
-149 -116 -337 -440 -119 -206 -207 -311 -279 -335 -72 -24 -73 10 -6 148 45
91 53 102 78 103 l27 1 -25 7 c-17 5 -21 9 -12 15 6 4 12 11 12 16 0 13 -41
-1 -47 -16 -3 -8 -16 -14 -30 -14 -52 0 -126 -53 -186 -134 -44 -58 -66 -78
-120 -107 -44 -23 -67 -19 -67 11 0 24 50 127 92 188 24 35 26 43 14 48 -16 6
-93 -45 -135 -90 -36 -39 -45 -31 -16 14 28 44 32 70 11 70 -7 0 -21 -20 -31
-45 -22 -59 -55 -98 -128 -152 -72 -53 -117 -59 -117 -15 0 29 38 117 70 162
11 15 20 33 20 39 0 24 -41 -11 -74 -62 -70 -109 -202 -199 -243 -166 -23 20
-14 62 38 166 48 97 54 105 118 147 130 87 293 283 336 405 23 66 3 78 -70 39z
m25 -38 c0 -65 -78 -195 -174 -292 -60 -59 -156 -136 -156 -124 0 3 39 67 87
143 164 261 243 349 243 273z m1106 15 c10 -25 -26 -114 -77 -190 -50 -75
-170 -195 -228 -228 l-32 -19 51 84 c137 220 246 368 271 368 5 0 12 -7 15
-15z m-1736 -511 c0 -19 -79 -132 -122 -174 -73 -72 -97 -66 -59 15 25 54 69
109 110 140 32 23 71 33 71 19z m1083 -46 c-33 -61 -142 -178 -165 -178 -15 0
-15 4 -2 43 28 82 127 187 176 187 18 0 17 -4 -9 -52z"/>
<path d="M477 836 c-30 -13 -84 -76 -255 -296 -152 -196 -186 -249 -184 -285
4 -46 19 -51 25 -8 10 59 213 356 341 498 l37 40 -6 -90 c-4 -49 -13 -164 -20
-255 -8 -90 -12 -166 -9 -169 2 -3 10 1 16 7 7 7 20 12 30 12 10 0 18 4 18 10
0 25 323 420 385 470 22 18 25 35 -34 -210 -48 -199 -58 -264 -43 -274 12 -7
142 23 142 33 0 4 -19 5 -42 3 l-41 -4 7 78 c7 86 43 274 71 368 12 40 23 60
36 63 10 3 19 9 19 14 0 12 -2 12 -52 -10 -51 -22 -129 -102 -318 -330 -74
-89 -136 -159 -138 -156 -6 5 16 321 29 409 5 38 14 75 20 83 14 16 3 16 -34
-1z"/>
<path d="M1732 718 c-17 -17 -15 -48 2 -48 17 0 48 39 40 52 -7 12 -28 10 -42
-4z"/>
<path d="M2836 708 c-11 -15 -13 -25 -6 -32 15 -15 44 6 48 33 4 28 -22 28
-42 -1z"/>
</g>
</svg>
